# xmcd
#
# Track frame offsets:
#	150
#	8437
#	25440
#	47019
#	56117
#	71215
#	90257
#	117771
#	136449
#	155405
#	185178
#	200583
#	219576
#	237381
#	252090
#
# Disc length: 3555 seconds
#
# Revision: 0
# Processed by: cddbd v1.4PL0 Copyright (c) Steve Scherf et al.
# Submitted via: dBpowerAMP V4.0
#
DISCID=d50de10f
DTITLE=Palo Duro - Comanche Moon
DYEAR=2000
DGENRE=Western
TTITLE0=Introduction
TTITLE1=Comanche Moon
TTITLE2=Say Goodbye to Montana
TTITLE3=The Great Circle
TTITLE4=Navajo Trail
TTITLE5=Ragtown Waltz
TTITLE6=Erkile
TTITLE7=Texas Plains
TTITLE8=How Could I Have Known
TTITLE9=Anthem
TTITLE10=Colorado Trail
TTITLE11=Where Do the Cowboys Go
TTITLE12=The New Bull
TTITLE13=When You Leave Amarillo
TTITLE14=Imprints
EXTD=This collection has earned an award for preserving and promoting the history, heritage, traditions, and spirit of the American West.\n\nSubmitted by Norm Millsap Jr.  -  Stockton, Missouri
EXTT0=
EXTT1=
EXTT2=
EXTT3=
EXTT4=
EXTT5=
EXTT6=
EXTT7=
EXTT8=
EXTT9=
EXTT10=
EXTT11=
EXTT12=
EXTT13=
EXTT14=
PLAYORDER=
